<?xml version="1.0" encoding="utf-8"?>
<!-- Generator: Adobe Illustrator 16.0.0, SVG Export Plug-In . SVG Version: 6.00 Build 0)  -->
<!DOCTYPE svg PUBLIC "-//W3C//DTD SVG 1.1//EN" "http://www.w3.org/Graphics/SVG/1.1/DTD/svg11.dtd">
<svg version="1.1"
	 id="Layer_1" xmlns:dc="http://purl.org/dc/elements/1.1/" xmlns:svg="http://www.w3.org/2000/svg" xmlns:rdf="http://www.w3.org/1999/02/22-rdf-syntax-ns#" xmlns:cc="http://creativecommons.org/ns#"
	 xmlns="http://www.w3.org/2000/svg" xmlns:xlink="http://www.w3.org/1999/xlink" x="0px" y="0px" width="511.963px"
	 height="535.754px" viewBox="41.659 78.659 511.963 535.754" enable-background="new 41.659 78.659 511.963 535.754"
	 xml:space="preserve">
<path d="M297.64,78.659c-108.997,0.06-107.708,95.245-107.708,95.245l-0.558,50.599c-8.913-0.12-11.162,8.619-11.162,26.229
	c0,26.393,16.25,54.008,30.88,68.271c0.437,1.819,0.865,3.661,1.302,5.208c13.019,41.925,46.805,72.846,87.246,74.038
	c40.441-1.192,74.117-32.093,87.061-74.038c0.551-1.79,1.109-3.646,1.488-5.208c14.629-14.264,30.879-41.879,30.879-68.271
	c0-17.61-2.248-26.345-11.162-26.229l-0.557-50.599C405.349,173.904,406.638,78.711,297.64,78.659z M210.767,387.461
	c-45.998,23.872-103.583,35.789-132.45,72.55c-25.593,33.005-36.416,65.326-36.647,97.85c-0.012,1.123-0.017,2.039,0,3.162
	c0.034,2.243,0.24,4.637,0.372,6.883c0.885,15.185,17.938,19.976,30.694,23.067c77.863,13.847,153.55,23.535,224.904,23.439
	c71.354,0.083,147.041-9.593,224.904-23.439c12.758-3.092,29.811-7.883,30.693-23.067c0.133-2.246,0.34-4.64,0.373-6.883
	c0.016-1.123,0.012-2.039,0-3.162c-0.232-32.523-11.053-64.845-36.646-97.85c-28.861-36.752-86.457-48.688-132.451-72.55
	c-14.229,70.504-28.469,126.303-78.129,189.746c-4.838,6.179-6.986,7.068-8.744,7.068c-1.757,0-3.72-0.89-8.557-7.068
	C239.422,513.764,224.996,457.963,210.767,387.461z M275.875,426.526c-2.48-0.036-4.55,2.581-4.092,5.022l6.511,33.484
	c0.381,1.908,2.147,3.349,4.093,3.349h30.322c1.945,0,3.896-1.44,4.277-3.349l6.512-33.484c0.496-2.441-1.613-5.061-4.092-5.022
	H275.875z M282.758,477.125c-1.755,0.152-3.339,1.446-3.721,3.162l-7.999,35.531c8.012,16.94,16.687,33.499,26.416,49.482
	c9.805-15.908,18.737-32.504,26.788-49.482l-8.186-35.531c-0.42-1.831-2.223-3.162-4.092-3.162h-28.648H282.758z"/>
</svg>
